<svg xmlns="http://www.w3.org/2000/svg" width="24" height="24" viewBox="0 0 24 24">
    <path data-name="Exclusion 3" d="M12 24A12.014 12.014 0 0 1 0 12 12.014 12.014 0 0 1 12 0a12.013 12.013 0 0 1 12 12 12.013 12.013 0 0 1-12 12zm-6.793-8.125a.422.422 0 0 0-.421.422v2.527a.421.421 0 0 0 .421.42H14.6a1.694 1.694 0 0 0 1.053-.367l3.979-3.185a.838.838 0 0 0 .316-.632.846.846 0 0 0-.282-.656.8.8 0 0 0-.544-.2.927.927 0 0 0-.578.2l-2.432 1.945a1.682 1.682 0 0 1-1.052.369h-3.115a.422.422 0 0 1-.421-.422.422.422 0 0 1 .421-.422h2.06a.875.875 0 0 0 .876-.7.847.847 0 0 0-.188-.687.843.843 0 0 0-.644-.3h-4.21a3.118 3.118 0 0 0-1.95.692l-1.223.992zm4.849-7.461a.187.187 0 0 0-.187.187v.826a.187.187 0 0 0 .06.138l2.577 2.378a.186.186 0 0 0 .128.051h1.289a.183.183 0 0 0 .174-.12.182.182 0 0 0-.048-.2L11.694 9.5a2.149 2.149 0 0 0 2.159-2h.825a.188.188 0 0 0 .187-.188v-.623a.188.188 0 0 0-.187-.188h-.918a2.14 2.14 0 0 0-.222-.5h1.139a.187.187 0 0 0 .187-.187v-.625a.187.187 0 0 0-.187-.187h-4.62a.185.185 0 0 0-.187.187v.7a.187.187 0 0 0 .187.187h1.331a1.121 1.121 0 0 1 .951.425h-2.283a.188.188 0 0 0-.187.188v.623a.188.188 0 0 0 .187.188h2.478a1.085 1.085 0 0 1-1.166.915z"/>
</svg>
