<svg xmlns="http://www.w3.org/2000/svg" width="24" height="23.999" viewBox="0 0 24 23.999">
    <path data-name="Exclusion 1" d="M12 24a11.923 11.923 0 0 1-8.486-3.514A11.92 11.92 0 0 1 0 12a11.921 11.921 0 0 1 3.515-8.485A11.923 11.923 0 0 1 12 0a11.921 11.921 0 0 1 8.485 3.514A11.922 11.922 0 0 1 24 12a11.921 11.921 0 0 1-3.514 8.485A11.921 11.921 0 0 1 12 24zM8.3 11.866a.3.3 0 0 0-.3.3v1.327a.3.3 0 0 0 .1.22l4.13 3.812a.3.3 0 0 0 .2.08h2.066a.3.3 0 0 0 .28-.191.3.3 0 0 0-.076-.33l-3.775-3.485a3.408 3.408 0 0 0 3.46-3.2H15.7a.3.3 0 0 0 .3-.3v-1a.3.3 0 0 0-.3-.3h-1.469a3.429 3.429 0 0 0-.356-.8H15.7a.3.3 0 0 0 .3-.3v-1a.3.3 0 0 0-.3-.3H8.3a.3.3 0 0 0-.3.3V7.82a.3.3 0 0 0 .3.3h2.134a1.8 1.8 0 0 1 1.526.682H8.3a.3.3 0 0 0-.3.3v1a.3.3 0 0 0 .3.3h3.973a1.722 1.722 0 0 1-1.871 1.468z"/>
</svg>
